<svg display="block" role="presentation" viewBox="0 0 70 64" xmlns="http://www.w3.org/2000/svg"><g d="M 20.2 0 L 30.3 0 C 35.87 0 40.4 4.53 40.4 10.1 L 40.4 20.2 L 30.3 20.2 C 24.73 20.2 20.2 15.67 20.2 10.1 L 20.2 0 Z M 40.45 20.29 L 50.55 20.29 C 56.12 20.29 60.65 24.82 60.65 30.39 L 60.65 40.49 L 50.55 40.49 C 44.98 40.49 40.45 35.96 40.45 30.39 L 40.45 20.29 Z M 0 20.39 L 10.1 20.39 C 15.67 20.39 20.2 24.92 20.2 30.49 L 20.2 40.59 L 10.1 40.59 C 4.53 40.59 0 36.06 0 30.49 L 0 20.39 Z M 20.25 40.68 L 30.35 40.68 C 35.92 40.68 40.45 45.21 40.45 50.78 L 40.45 60.88 L 30.35 60.88 C 24.78 60.88 20.25 56.35 20.25 50.78 L 20.25 40.68 Z" fill="transparent" height="60.880000305175784px" id="uFmaH_Ofz" transform="translate(4.52 1.3)" width="60.650000762939456px"><path d="M 0 0 L 10.1 0 C 15.67 0 20.2 4.53 20.2 10.1 L 20.2 20.2 L 10.1 20.2 C 4.53 20.2 0 15.67 0 10.1 L 0 0 Z" fill="rgb(0, 185, 174)" height="20.2px" id="jxvRsGiI5" transform="translate(20.2 0)" width="20.200000000000006px"/><path d="M 0 0 L 10.1 0 C 15.67 0 20.2 4.53 20.2 10.1 L 20.2 20.2 L 10.1 20.2 C 4.53 20.2 0 15.67 0 10.1 L 0 0 Z" fill="rgb(0, 185, 174)" height="20.200000000000006px" id="ZV_OZqk_A" transform="translate(40.45 20.29)" width="20.200000000000003px"/><path d="M 0 0 L 10.1 0 C 15.67 0 20.2 4.53 20.2 10.1 L 20.2 20.2 L 10.1 20.2 C 4.53 20.2 0 15.67 0 10.1 L 0 0 Z" fill="rgb(0, 185, 174)" height="20.200000000000006px" id="Zr_80YN5W" transform="translate(0 20.39)" width="20.2px"/><path d="M 0 0 L 10.1 0 C 15.67 0 20.2 4.53 20.2 10.1 L 20.2 20.2 L 10.1 20.2 C 4.53 20.2 0 15.67 0 10.1 L 0 0 Z" fill="rgb(0, 185, 174)" height="20.200000000000003px" id="cxFxOvtKx" transform="translate(20.25 40.68)" width="20.200000000000006px"/></g></svg>